<?xml version="1.0" standalone="no"?>
<!DOCTYPE svg PUBLIC "-//W3C//DTD SVG 20010904//EN"
 "http://www.w3.org/TR/2001/REC-SVG-20010904/DTD/svg10.dtd">
<svg version="1.0" xmlns="http://www.w3.org/2000/svg"
 width="512.000000pt" height="512.000000pt" viewBox="0 0 512.000000 512.000000"
 preserveAspectRatio="xMidYMid meet">
<metadata>
Created by potrace 1.11, written by Peter Selinger 2001-2013
</metadata>
<g transform="translate(0.000000,512.000000) scale(0.100000,-0.100000)"
fill="#000000" stroke="none">
<path d="M3840 3879 l0 -1241 73 7 c87 9 300 9 353 1 21 -3 59 -8 84 -12 180
-23 376 -91 434 -150 15 -14 16 105 16 1310 l0 1326 -480 0 -480 0 0 -1241z"/>
<path d="M650 4943 c-77 -12 -172 -39 -220 -64 -152 -75 -251 -262 -259 -486
l-3 -83 49 -49 c26 -27 205 -207 396 -400 l348 -352 -161 -160 -162 -161 -159
162 -159 162 -161 -161 -160 -161 640 -641 640 -641 161 161 160 161 -160 160
-161 160 83 82 c45 46 117 118 159 161 l76 78 678 -677 678 -678 -12 -32 c-40
-112 -55 -209 -55 -359 0 -158 10 -228 53 -362 86 -270 317 -529 581 -655 61
-30 190 -73 241 -82 19 -3 50 -10 70 -15 69 -16 326 -6 419 17 214 52 390 151
540 302 164 164 267 359 315 595 14 64 13 311 -1 388 -22 125 -79 278 -141
382 -42 70 -147 197 -208 251 -211 187 -441 281 -713 290 -138 5 -226 -6 -359
-42 l-91 -26 -1391 1391 -1391 1391 -67 -1 c-38 -1 -79 -3 -93 -6z m3481
-3373 c88 -27 156 -69 215 -133 87 -94 123 -179 130 -302 7 -146 -44 -274
-148 -371 -191 -176 -461 -178 -652 -3 -159 145 -199 376 -100 571 32 64 114
151 174 186 114 68 262 88 381 52z"/>
<path d="M320 1115 l0 -1115 480 0 480 0 0 63 c0 34 1 320 1 635 l0 574 -270
271 c-148 150 -362 365 -474 480 -113 114 -208 207 -211 207 -3 0 -6 -502 -6
-1115z"/>
</g>
</svg>
